<?xml version="1.0" encoding="UTF-8" standalone="no"?>
<svg xmlns="http://www.w3.org/2000/svg" width="1200" height="700" viewBox="0 0 1200 700">
  <defs>
    <style>
      .bg { fill: #0e1117; }
      .card { fill: #ffffff; rx: 12px; }
      .title { fill: #0f1724; font-family: Arial, Helvetica, sans-serif; font-size: 32px; font-weight: 700; }
      .label { fill: #6b7280; font-family: Arial, Helvetica, sans-serif; font-size: 16px; }
      .btn { fill: #ff4b4b; rx: 8px; }
      .btn-txt { fill: #fff; font-family: Arial, Helvetica, sans-serif; font-size: 16px; font-weight: 700; }
      .item { fill: #0f1724; font-family: Arial, Helvetica, sans-serif; font-size: 18px; }
    </style>
  </defs>

  <rect width="1200" height="700" class="bg" />

  <g transform="translate(80,60)">
    <rect width="1040" height="580" class="card" />
    <text x="30" y="56" class="title">🎬 Movie Recommendation System</text>

    <!-- Selector -->
    <text x="40" y="120" class="label">Choose a movie</text>
    <rect x="40" y="130" width="520" height="42" fill="#f3f4f6" rx="6" />
    <text x="52" y="157" class="label">Inception</text>

    <!-- Button -->
    <rect x="580" y="130" width="140" height="42" class="btn" />
    <text x="604" y="157" class="btn-txt">Recommend</text>

    <!-- Recommendations list -->
    <text x="40" y="220" class="label">You may also like:</text>
    <g transform="translate(40,240)">
      <rect x="0" y="0" width="960" height="44" fill="#f8fafc" rx="8" />
      <text x="18" y="30" class="item">👉 Interstellar</text>
    </g>
    <g transform="translate(40,298)">
      <rect x="0" y="0" width="960" height="44" fill="#f8fafc" rx="8" />
      <text x="18" y="30" class="item">👉 The Matrix</text>
    </g>
    <g transform="translate(40,356)">
      <rect x="0" y="0" width="960" height="44" fill="#f8fafc" rx="8" />
      <text x="18" y="30" class="item">👉 Inception (again)</text>
    </g>
    <g transform="translate(40,414)">
      <rect x="0" y="0" width="960" height="44" fill="#f8fafc" rx="8" />
      <text x="18" y="30" class="item">👉 Dark</text>
    </g>

    <!-- Footer note -->
    <text x="40" y="540" class="label">Screenshot: local Streamlit UI mock (actual layout may vary)</text>
  </g>
</svg>
